<svg width="48" height="48" viewBox="0 0 48 48" fill="none" xmlns="http://www.w3.org/2000/svg">
<g clip-path="url(#clip0_2131_6479)">
<path d="M24 48C37.2548 48 48 37.2548 48 24C48 10.7452 37.2548 0 24 0C10.7452 0 0 10.7452 0 24C0 37.2548 10.7452 48 24 48Z" fill="#FBC85B"/>
<path d="M32.7155 32.6663C32.6937 33.7676 31.7271 36.4433 28.3054 38.1012C26.9631 38.7544 25.4912 39.0938 24 39.0938C22.5088 39.0938 21.0369 38.7544 19.6946 38.1012C16.267 36.4493 15.3063 33.7676 15.2845 32.6663C15.245 32.0481 15.5613 31.3086 16.3994 31.5452C17.7673 32.0461 19.9141 32.3403 21.5785 32.4934C23.1892 32.6465 24.8108 32.6465 26.4215 32.4934C28.0859 32.3344 30.2327 32.0461 31.6006 31.5452C32.4387 31.3086 32.755 32.0481 32.7155 32.6663Z" fill="#9A695E"/>
<path d="M26.5145 15.0894C26.1672 16.393 26.3321 17.7149 27.0385 19.2535C27.6678 20.6302 28.7024 22.1316 29.9018 23.8695C30.3111 24.4631 30.7725 25.1375 31.2503 25.8481C31.3772 26.0361 31.5672 26.1723 31.786 26.232C32.0061 26.2928 32.2409 26.2697 32.4449 26.1671C33.2157 25.7881 33.9378 25.4289 34.6046 25.1285C36.5122 24.2218 38.1589 23.439 39.392 22.5642C40.7723 21.5823 41.5768 20.5214 41.9272 19.2169C42.2733 18.0076 42.1496 16.7122 41.581 15.5902C41.3046 15.0582 40.9195 14.5903 40.4507 14.2167C39.9818 13.8431 39.4397 13.5722 38.8595 13.4215C37.979 13.1803 37.0425 13.2475 36.2054 13.6119C35.7528 13.8027 35.3303 14.0583 34.9513 14.3707C34.7793 13.9108 34.5425 13.4778 34.2483 13.0847C33.7046 12.3563 32.9304 11.8332 32.0517 11.6005C31.4736 11.442 30.8687 11.4061 30.2759 11.495C29.683 11.584 29.1153 11.7959 28.6092 12.1171C27.5625 12.8097 26.8147 13.8707 26.5145 15.0894Z" fill="#E46E80"/>
<path d="M19.3854 12.1305C18.8793 11.8092 18.3116 11.5973 17.7188 11.5084C17.1259 11.4194 16.521 11.4553 15.9429 11.6138C15.0642 11.8465 14.29 12.3696 13.7463 13.0981C13.4521 13.4911 13.2154 13.9241 13.0433 14.384C12.6643 14.0716 12.2418 13.816 11.7892 13.6253C10.9522 13.2609 10.0156 13.1937 9.13512 13.4348C8.55487 13.5855 8.01277 13.8564 7.54393 14.23C7.07509 14.6036 6.69 15.0715 6.4136 15.6035C5.84497 16.7255 5.7213 18.0209 6.06736 19.2303C6.41779 20.5347 7.22233 21.5956 8.60261 22.5775C9.83573 23.4523 11.4824 24.2351 13.39 25.1419C14.0408 25.4515 14.7789 25.8014 15.5497 26.1804C15.7537 26.283 15.9885 26.3061 16.2086 26.2454C16.4274 26.1856 16.6174 26.0494 16.7443 25.8614C17.2221 25.1509 17.6835 24.4765 18.0928 23.8828C19.2922 22.1449 20.3142 20.6401 20.9561 19.2668C21.6625 17.7282 21.8274 16.4063 21.4801 15.1027C21.1799 13.8841 20.4321 12.823 19.3854 12.1305Z" fill="#E46E80"/>
</g>
<defs>
<clipPath id="clip0_2131_6479">
<rect width="48" height="48" fill="white"/>
</clipPath>
</defs>
</svg>
